<mxfile host="app.diagrams.net" modified="2024-07-08T11:43:40.742Z" agent="Mozilla/5.0 (X11; Linux x86_64) AppleWebKit/537.36 (KHTML, like Gecko) Chrome/126.0.0.0 Safari/537.36" version="24.6.4" etag="JB-e_NZ3IyXrFKlrRiCA" type="github">
  <diagram name="PÃ¡gina-1" id="78X_FRY8cqi1PxcoUgu3">
    <mxGraphModel>
      <root>
        <mxCell id="0" />
        <mxCell id="1" parent="0" />
      </root>
    </mxGraphModel>
  </diagram>
</mxfile>
